<svg xmlns="http://www.w3.org/2000/svg" xmlns:xlink="http://www.w3.org/1999/xlink" xml:space="preserve" version="1.1" style="shape-rendering:geometricPrecision;text-rendering:geometricPrecision;image-rendering:optimizeQuality;" viewBox="0 0 80 100" x="0px" y="0px" fill-rule="evenodd" clip-rule="evenodd"><defs><style type="text/css">
   
    .fil0 {fill:#5A5A5A}
   
  </style></defs><g><path class="fil0" d="M9.291 8l12.133 0c0.71,0 1.291,0.581 1.291,1.291l0 12.133c0,0.711 -0.581,1.291 -1.291,1.291l-12.133 0c-0.711,0 -1.291,-0.58 -1.291,-1.291l0 -12.133c0,-0.71 0.58,-1.291 1.291,-1.291zm21.719 58.558l29.733 0c0.427,0 0.775,0.348 0.775,0.774l0 1.641c0,0.427 -0.348,0.775 -0.775,0.775l-29.733 0c-0.426,0 -0.775,-0.348 -0.775,-0.775l0 -1.641c0,-0.426 0.349,-0.774 0.775,-0.774zm0 -7.022l40.215 0c0.427,0 0.775,0.349 0.775,0.775l0 1.641c0,0.426 -0.348,0.775 -0.775,0.775l-40.215 0c-0.427,0 -0.775,-0.349 -0.775,-0.775l0 -1.641c0,-0.426 0.348,-0.775 0.775,-0.775zm0 -17.621l29.733 0c0.427,0 0.775,0.348 0.775,0.775l0 1.641c0,0.426 -0.348,0.774 -0.775,0.774l-29.733 0c-0.426,0 -0.775,-0.348 -0.775,-0.774l0 -1.641c0,-0.427 0.349,-0.775 0.775,-0.775zm0 -7.021l40.215 0c0.427,0 0.775,0.348 0.775,0.775l0 1.641c0,0.426 -0.348,0.774 -0.775,0.774l-40.215 0c-0.427,0 -0.775,-0.348 -0.775,-0.774l0 -1.641c0,-0.427 0.348,-0.775 0.775,-0.775zm0 -17.621l29.733 0c0.427,0 0.775,0.348 0.775,0.775l0 1.641c0,0.426 -0.348,0.774 -0.775,0.774l-29.733 0c-0.426,0 -0.775,-0.348 -0.775,-0.774l0 -1.641c0,-0.427 0.349,-0.775 0.775,-0.775zm0 -7.021l40.215 0c0.427,0 0.775,0.348 0.775,0.774l0 1.641c0,0.427 -0.348,0.775 -0.775,0.775l-40.215 0c-0.427,0 -0.775,-0.348 -0.775,-0.775l0 -1.641c0,-0.426 0.348,-0.774 0.775,-0.774zm-21.719 47.033l12.133 0c0.71,0 1.291,0.58 1.291,1.291l0 12.133c0,0.711 -0.581,1.291 -1.291,1.291l-12.133 0c-0.711,0 -1.291,-0.58 -1.291,-1.291l0 -12.133c0,-0.711 0.58,-1.291 1.291,-1.291zm0 -24.643l12.133 0c0.71,0 1.291,0.581 1.291,1.291l0 12.134c0,0.71 -0.581,1.291 -1.291,1.291l-12.133 0c-0.711,0 -1.291,-0.581 -1.291,-1.291l0 -12.134c0,-0.71 0.58,-1.291 1.291,-1.291z"/></g></svg>